<mxfile host="app.diagrams.net" modified="2022-06-18T10:00:35.241Z" agent="5.0 (Windows NT 10.0; Win64; x64) AppleWebKit/537.36 (KHTML, like Gecko) Chrome/102.0.0.0 Safari/537.36" etag="c2Uttd4-6qap8eoi3bYh" version="20.0.1" type="github">
  <diagram id="-viC0kMm4LhaJpBqiEl6" name="Page-1">
    <mxGraphModel dx="2031" dy="1053" grid="1" gridSize="10" guides="1" tooltips="1" connect="1" arrows="1" fold="1" page="1" pageScale="1" pageWidth="827" pageHeight="1169" math="0" shadow="0">
      <root>
        <mxCell id="0" />
        <mxCell id="1" parent="0" />
        <mxCell id="7HWZvBNkfLHPfYo_Z0tD-20" style="edgeStyle=orthogonalEdgeStyle;rounded=0;orthogonalLoop=1;jettySize=auto;html=1;exitX=0.5;exitY=1;exitDx=0;exitDy=0;" edge="1" parent="1" source="7HWZvBNkfLHPfYo_Z0tD-1" target="7HWZvBNkfLHPfYo_Z0tD-2">
          <mxGeometry relative="1" as="geometry" />
        </mxCell>
        <mxCell id="7HWZvBNkfLHPfYo_Z0tD-1" value="Начало" style="ellipse;whiteSpace=wrap;html=1;" vertex="1" parent="1">
          <mxGeometry x="340" y="30" width="120" height="80" as="geometry" />
        </mxCell>
        <mxCell id="7HWZvBNkfLHPfYo_Z0tD-21" style="edgeStyle=orthogonalEdgeStyle;rounded=0;orthogonalLoop=1;jettySize=auto;html=1;exitX=0.5;exitY=1;exitDx=0;exitDy=0;" edge="1" parent="1" source="7HWZvBNkfLHPfYo_Z0tD-2" target="7HWZvBNkfLHPfYo_Z0tD-3">
          <mxGeometry relative="1" as="geometry" />
        </mxCell>
        <mxCell id="7HWZvBNkfLHPfYo_Z0tD-2" value="Определяем подключение &lt;br&gt;пинов к МК" style="rounded=0;whiteSpace=wrap;html=1;" vertex="1" parent="1">
          <mxGeometry x="295" y="150" width="210" height="90" as="geometry" />
        </mxCell>
        <mxCell id="7HWZvBNkfLHPfYo_Z0tD-22" style="edgeStyle=orthogonalEdgeStyle;rounded=0;orthogonalLoop=1;jettySize=auto;html=1;exitX=0.5;exitY=1;exitDx=0;exitDy=0;" edge="1" parent="1" source="7HWZvBNkfLHPfYo_Z0tD-3" target="7HWZvBNkfLHPfYo_Z0tD-4">
          <mxGeometry relative="1" as="geometry" />
        </mxCell>
        <mxCell id="7HWZvBNkfLHPfYo_Z0tD-3" value="Инициализируем пины" style="rounded=0;whiteSpace=wrap;html=1;" vertex="1" parent="1">
          <mxGeometry x="295" y="270" width="210" height="90" as="geometry" />
        </mxCell>
        <mxCell id="7HWZvBNkfLHPfYo_Z0tD-23" style="edgeStyle=orthogonalEdgeStyle;rounded=0;orthogonalLoop=1;jettySize=auto;html=1;exitX=0.5;exitY=1;exitDx=0;exitDy=0;" edge="1" parent="1" source="7HWZvBNkfLHPfYo_Z0tD-4" target="7HWZvBNkfLHPfYo_Z0tD-5">
          <mxGeometry relative="1" as="geometry" />
        </mxCell>
        <mxCell id="7HWZvBNkfLHPfYo_Z0tD-4" value="Задаём переменные для определения времени и расстояния" style="rounded=0;whiteSpace=wrap;html=1;" vertex="1" parent="1">
          <mxGeometry x="295" y="390" width="210" height="90" as="geometry" />
        </mxCell>
        <mxCell id="7HWZvBNkfLHPfYo_Z0tD-25" style="edgeStyle=orthogonalEdgeStyle;rounded=0;orthogonalLoop=1;jettySize=auto;html=1;" edge="1" parent="1" source="7HWZvBNkfLHPfYo_Z0tD-5" target="7HWZvBNkfLHPfYo_Z0tD-6">
          <mxGeometry relative="1" as="geometry" />
        </mxCell>
        <mxCell id="7HWZvBNkfLHPfYo_Z0tD-5" value="Подаём сигнал на выход МК (HIGH)" style="rounded=0;whiteSpace=wrap;html=1;" vertex="1" parent="1">
          <mxGeometry x="295" y="510" width="210" height="90" as="geometry" />
        </mxCell>
        <mxCell id="7HWZvBNkfLHPfYo_Z0tD-26" style="edgeStyle=orthogonalEdgeStyle;rounded=0;orthogonalLoop=1;jettySize=auto;html=1;" edge="1" parent="1" source="7HWZvBNkfLHPfYo_Z0tD-6" target="7HWZvBNkfLHPfYo_Z0tD-8">
          <mxGeometry relative="1" as="geometry" />
        </mxCell>
        <mxCell id="7HWZvBNkfLHPfYo_Z0tD-6" value="Задержка 10 миллисекунд" style="rounded=0;whiteSpace=wrap;html=1;" vertex="1" parent="1">
          <mxGeometry x="295" y="630" width="210" height="90" as="geometry" />
        </mxCell>
        <mxCell id="7HWZvBNkfLHPfYo_Z0tD-27" style="edgeStyle=orthogonalEdgeStyle;rounded=0;orthogonalLoop=1;jettySize=auto;html=1;" edge="1" parent="1" source="7HWZvBNkfLHPfYo_Z0tD-8" target="7HWZvBNkfLHPfYo_Z0tD-9">
          <mxGeometry relative="1" as="geometry" />
        </mxCell>
        <mxCell id="7HWZvBNkfLHPfYo_Z0tD-8" value="Подаём сигнал LOW на выход МК" style="rounded=0;whiteSpace=wrap;html=1;" vertex="1" parent="1">
          <mxGeometry x="295" y="740" width="210" height="90" as="geometry" />
        </mxCell>
        <mxCell id="7HWZvBNkfLHPfYo_Z0tD-28" style="edgeStyle=orthogonalEdgeStyle;rounded=0;orthogonalLoop=1;jettySize=auto;html=1;" edge="1" parent="1" source="7HWZvBNkfLHPfYo_Z0tD-9" target="7HWZvBNkfLHPfYo_Z0tD-11">
          <mxGeometry relative="1" as="geometry" />
        </mxCell>
        <mxCell id="7HWZvBNkfLHPfYo_Z0tD-9" value="Замеряем длину импульса и&lt;br&gt;пересчитываем все в см" style="rounded=0;whiteSpace=wrap;html=1;" vertex="1" parent="1">
          <mxGeometry x="295" y="850" width="210" height="90" as="geometry" />
        </mxCell>
        <mxCell id="7HWZvBNkfLHPfYo_Z0tD-29" style="edgeStyle=orthogonalEdgeStyle;rounded=0;orthogonalLoop=1;jettySize=auto;html=1;" edge="1" parent="1" source="7HWZvBNkfLHPfYo_Z0tD-11" target="7HWZvBNkfLHPfYo_Z0tD-12">
          <mxGeometry relative="1" as="geometry" />
        </mxCell>
        <mxCell id="7HWZvBNkfLHPfYo_Z0tD-11" value="Вывод данных &lt;br&gt;с трёх УЗ датчиков" style="shape=parallelogram;perimeter=parallelogramPerimeter;whiteSpace=wrap;html=1;fixedSize=1;" vertex="1" parent="1">
          <mxGeometry x="310" y="960" width="180" height="70" as="geometry" />
        </mxCell>
        <mxCell id="7HWZvBNkfLHPfYo_Z0tD-12" value="Конец" style="ellipse;whiteSpace=wrap;html=1;" vertex="1" parent="1">
          <mxGeometry x="340" y="1070" width="120" height="80" as="geometry" />
        </mxCell>
      </root>
    </mxGraphModel>
  </diagram>
</mxfile>
